Brought to you by
2Lions Team

meer DivX zien??
Kom dan eens kijken op ons NIEUWE forum

NEW NEW ***** http://2lions-site.nl ***** NEW NEW

2Lions the site to be for all your Dutch MOVIES and more

******************************************


DON T HIT AND RUN Niet gelijk afhaken als de FILM binnen is blijf seeden.

Don`t quit after you finished the download, but keep seeding


There are fake torrents from uploaders who use our team name.
Those are not ours, or members from our team.
We 2Lions-Team are not responsible for the fake posts on our name

Wij 2Lions-Team zijn niet verantwoordelijk voor die zieke FAKE posten die op onze naam worden gedaan

Please check our site !!!
To the fakers Get a Live
******************************************************************************

The Deer Hunter van Michael Cimino is een film uit 1978 over de Vietnamoorlog. De film won vijf Oscars. De film heeft verder 16 andere prijzen gewonnen en nog 19 nominaties gehad.

De film gaat over het leven van drie jonge mannen die in een hoogoven werken in het saaie industriestadje Clairton, Pennsylvania en volop van het leven genieten. Als hobby gaan ze vaak jagen, vandaar ook de titel "The Deer Hunter". Maar hun leven verandert drastisch als ze als soldaten de Vietnamoorlog meemaken. Ze worden los van elkaar uitgezet tot ze elkaar ontmoeten in een klein gevangenenkamp, gevangengenomen door de Vietcong en worden gedwongen om Russische roulette te spelen.

De film geeft een realistische weergave van de onmenselijke gebeurtenissen in deze oorlog, en maakt goed duidelijk dat het voor veel soldaten niet simpel was om zomaar verder te leven na de oorlog.
 
http://www.imdb.com/title/tt0077416/
******************************************************************************

Format : AVI
Format/Info : Audio Video Interleave
File size : 1.37 GiB
Duration : 2h 56mn
Overall bit rate : 1 112 Kbps
Writing application : FairUse Wizard - http://fairusewizard.com
Writing library : The best and REALLY easy backup tool

Video
ID : 0
Format : MPEG-4 Visual
Format profile : Simple@L3
Format settings, BVOP : No
Format settings, QPel : No
Format settings, GMC : No warppoints
Format settings, Matrix : Default (H.263)
Codec ID : XVID
Codec ID/Hint : XviD
Duration : 2h 56mn
Bit rate : 974 Kbps
Width : 640 pixels
Height : 352 pixels
Display aspect ratio : 16:9
Frame rate : 25.000 fps
Color space : YUV
Chroma subsampling : 4:2:0
Bit depth : 8 bits
Scan type : Progressive
Bits/(Pixel*Frame) : 0.173
Stream size : 1.20 GiB (88%)
Writing library : XviD 1.2.0.dev47 (UTC 2006-11-01)

Audio
ID : 1
Format : MPEG Audio
Format version : Version 1
Format profile : Layer 3
Mode : Joint stereo
Codec ID : 55
Codec ID/Hint : MP3
Duration : 2h 56mn
Bit rate mode : Constant
Bit rate : 128 Kbps
Channel(s) : 2 channels
Sampling rate : 48.0 KHz
Stream size : 161 MiB (12%)
Alignment : Aligned on interleaves
Interleave, duration : 40 ms (1.00 video frame)
Interleave, preload duration : 504 ms
Writing library : LAME3.97
Encoding settings : -m j -V 4 -q 2 -lowpass 17 -b 128
******************************************************************************